PathFileType	4	(X/Y/Z)	C249e_D251_DD_1_S001_1.trc
DataRate	CameraRate	NumFrames	NumMarkers	Units	OrigDataRate	OrigDataStartFrame	OrigNumFrames
50.0	50.0	6	54	mm	50.0	79	314
Frame#	Time		Q_WaistRFront		Q_WaistLFront		Q_WaistL		Q_WaistR		Q_WaistBack		Q_LThighFrontLow		Q_RThighFrontLow		Q_RKneeIn		Q_RKneeOut		Q_RShinFrontHigh		Q_LKneeIn		Q_LKneeOut		Q_LShinFrontHigh		Q_RForefoot5		Q_RForefoot2		Q_RHeelBack		Q_RAnkleOut		Q_LForefoot5		Q_LForefoot2		Q_LHeelBack		Q_LAnkleOut		Q_SpineThoracic2		Q_Chest		Q_SpineThoracic12		Q_HeadL		Q_HeadR		Q_HeadFront		Q_LShoulderTop		Q_LArm		Q_LElbowOut		Q_LElbowIn		Q_LWristOut		Q_LWristIn		Q_LHand2		Q_RShoulderTop		Q_RArm		Q_RElbowOut		Q_RElbowIn		Q_RWristOut		Q_RWristIn		Q_RHand2		RHipAngles		LHipAngles		RKneeAngles		LKneeAngles		RAnkleAngles		LAnkleAngles		RShoulderAngles		LShoulderAngles		RElbowAngles		LElbowAngles		RWristAngles		LWristAngles		Neck
			X1	Y1	Z1	X2	Y2	Z2	X3	Y3	Z3	X4	Y4	Z4	X5	Y5	Z5	X6	Y6	Z6	X7	Y7	Z7	X8	Y8	Z8	X9	Y9	Z9	X10	Y10	Z10	X11	Y11	Z11	X12	Y12	Z12	X13	Y13	Z13	X14	Y14	Z14	X15	Y15	Z15	X16	Y16	Z16	X17	Y17	Z17	X18	Y18	Z18	X19	Y19	Z19	X20	Y20	Z20	X21	Y21	Z21	X22	Y22	Z22	X23	Y23	Z23	X24	Y24	Z24	X25	Y25	Z25	X26	Y26	Z26	X27	Y27	Z27	X28	Y28	Z28	X29	Y29	Z29	X30	Y30	Z30	X31	Y31	Z31	X32	Y32	Z32	X33	Y33	Z33	X34	Y34	Z34	X35	Y35	Z35	X36	Y36	Z36	X37	Y37	Z37	X38	Y38	Z38	X39	Y39	Z39	X40	Y40	Z40	X41	Y41	Z41	X42	Y42	Z42	X43	Y43	Z43	X44	Y44	Z44	X45	Y45	Z45	X46	Y46	Z46	X47	Y47	Z47	X48	Y48	Z48	X49	Y49	Z49	X50	Y50	Z50	X51	Y51	Z51	X52	Y52	Z52	X53	Y53	Z53	X54	Y54	Z54

79	1.56000	87.87733	842.02612	192.44147	-168.17395	842.39465	207.43353	-164.32314	853.64978	272.92517	91.72813	853.28125	257.93314	-36.29751	853.46552	265.42917	-90.83971	476.52728	261.65616	27.09554	475.51624	240.84192	-29.56194	424.05182	257.72690	110.36602	421.28510	254.19078	36.43490	221.71024	256.20898	-34.05203	426.16214	283.63785	-173.35907	421.19162	270.64432	-95.45714	223.19217	265.40067	113.10480	37.22892	201.33614	63.25792	38.32683	197.58362	52.35715	31.30380	340.32938	104.78665	67.56030	326.03461	-169.35561	50.50115	194.96577	-119.58360	45.89642	193.72356	-117.73835	27.49749	335.85931	-164.72232	70.68456	321.89114	-34.21352	1305.52100	376.22897	-42.15388	747.42346	74.35013	-34.21352	1305.52100	376.22897	-98.94130	1482.69897	256.59259	40.81966	1479.01526	263.89331	-25.37713	1482.09949	190.35100	-174.46611	1329.74133	272.33450	-329.06723	1236.01306	248.46452	-426.84488	1270.57983	226.29103	-400.53925	1194.65552	166.76353	-628.31079	1190.07446	129.88815	-614.24915	1222.60217	94.61468	-727.56366	1211.73242	102.64414	104.63451	1333.79980	270.29202	263.41605	1245.86987	263.93530	361.38016	1281.88013	245.13971	342.99734	1197.72461	194.34662	573.37488	1196.60376	180.72478	562.20166	1223.55298	140.11818	668.98889	1198.74646	157.02145	-8.81032	-5.33510	2.04769	-7.44216	-6.89959	-7.76479	-4.85085	4.27351	-0.04596	0.11499	5.13102	-0.06670	-8.69076	5.95826	0.16287	-9.78205	5.96359	8.13854	-10.29921	17.29443	7.80459	12.88866	-24.67015	9.84892	-7.68327	-24.67015	80.10211	-8.41520	-0.00000	80.10211	-15.65864	-5.67164	80.10211	-9.75623	-16.11426	-0.00000	-14.40080	-0.62895	2.07480
80	1.58000	88.30679	841.28558	192.69690	-167.85410	841.59436	205.68468	-164.51898	852.90674	271.19473	91.64190	852.59802	258.20700	-36.43853	852.75238	264.70087	-90.66705	475.81839	260.82547	27.27808	474.77402	241.42361	-29.54882	423.30695	257.71402	110.41451	420.63641	255.94478	36.59939	221.01076	256.89926	-33.84430	425.43451	282.67834	-173.18747	420.52588	270.05353	-95.43867	222.45677	265.18073	113.77346	37.02579	202.62093	63.98756	38.56706	198.26343	51.26063	30.44300	340.79950	104.15759	66.38287	327.45917	-169.83110	51.65239	195.27489	-120.08062	46.88987	193.78889	-117.76890	26.76491	335.68372	-164.65222	70.28118	322.41666	-35.38454	1305.47705	375.07422	-40.96336	747.04077	73.76965	-35.38454	1305.47705	375.07422	-99.11288	1483.51050	256.41190	40.63646	1478.45947	263.09103	-25.84464	1482.44226	189.84897	-174.94556	1330.99634	270.98737	-331.98233	1243.98132	248.47235	-428.30615	1282.89563	227.15598	-405.86227	1206.02380	167.26447	-633.39349	1213.89954	129.47360	-617.45734	1245.83447	94.45648	-731.44086	1242.32959	102.45432	102.95359	1335.41907	269.60327	264.05978	1255.02759	265.07889	360.30457	1295.49951	246.47913	346.43872	1209.84351	196.77191	576.69910	1219.75928	184.83542	564.55109	1245.55945	143.76503	672.69104	1228.16174	161.35655	-8.70087	-5.34635	2.19847	-7.40583	-6.94994	-7.47789	-4.64594	4.29172	0.04441	0.06728	5.20861	0.21508	-9.09332	5.96164	-0.34117	-10.64806	5.97038	8.38099	-10.41215	16.56250	5.27551	13.06499	-24.78487	7.08977	-7.74545	-24.78487	80.97874	-9.17290	-0.00000	80.97874	-14.76466	-6.12792	80.97874	-9.35300	-16.38859	-0.00000	-14.17261	-1.38764	2.05658
81	1.60000	89.49112	841.39795	193.43138	-166.76175	842.03766	204.44328	-163.91710	853.29889	269.98529	92.33576	852.65918	258.97342	-35.79067	852.97900	264.47934	-90.44451	476.12225	260.17267	27.72500	474.89380	242.00162	-29.31400	423.43710	257.96829	110.65871	420.76364	257.25650	36.83182	221.14003	257.17017	-33.71883	425.67078	282.25500	-173.03195	420.95502	269.23126	-95.57150	222.76074	264.88339	114.43927	36.84798	203.16420	64.68463	38.29935	198.43445	50.91354	30.44453	340.88852	103.85004	66.44324	327.86737	-170.08684	52.01493	195.04152	-120.35432	47.02673	193.70209	-118.51656	27.23294	335.65042	-165.16873	70.92612	322.15198	-34.74693	1306.50378	375.17142	-39.37495	748.22485	73.55896	-34.74693	1306.50378	375.17142	-98.77641	1484.29980	255.86418	40.98134	1479.91467	262.83127	-25.39682	1482.60364	189.43707	-173.69220	1333.69470	270.67984	-332.71262	1253.30579	248.27029	-427.31360	1296.43066	227.34470	-408.24582	1219.05371	166.93594	-635.69153	1235.33313	131.38181	-618.94171	1266.81958	96.33819	-732.95245	1269.55164	105.42370	103.50854	1337.19214	269.86993	265.69464	1262.15356	265.43607	360.46902	1305.72827	246.30392	349.51126	1219.15454	197.46854	579.28754	1236.83569	185.18634	566.23218	1261.79211	143.87370	674.97296	1248.20325	162.91289	-8.57766	-5.33683	2.31166	-7.31289	-6.97338	-7.16303	-4.43980	4.36251	-0.10216	0.02324	5.23278	0.14175	-8.84707	5.95031	-0.24820	-10.59869	5.96041	8.54551	-10.82014	15.95345	3.49419	13.56860	-25.02743	4.61746	-7.87782	-25.02743	82.51291	-8.67170	-0.00000	82.51291	-15.43856	-5.97660	82.51291	-8.34133	-17.19668	-0.00000	-14.98419	-1.08551	2.28114
82	1.62000	90.63031	841.56512	194.11885	-165.68523	842.36493	203.54704	-163.23836	853.54474	269.11905	93.07716	852.74493	259.69089	-35.08060	853.14484	264.40497	-89.83996	476.34155	259.63422	28.17597	475.03238	242.39873	-29.05113	423.55222	258.12247	110.92407	420.91751	258.17526	37.15420	221.27478	257.29245	-33.14861	425.87094	281.84891	-172.44237	421.21664	268.59811	-95.09828	222.96632	264.76160	114.91075	36.65811	203.36949	65.18714	38.32359	198.39053	50.66687	30.45864	340.76962	103.82083	66.23792	328.03278	-169.59358	51.75502	195.16049	-119.86559	46.69189	193.93916	-118.31638	27.64147	335.99261	-164.88342	71.32687	322.17877	-34.51407	1307.22461	375.74969	-37.66885	749.34558	73.37943	-34.51407	1307.22461	375.74969	-98.76312	1484.71582	255.14445	41.01015	1480.74548	262.04880	-25.44827	1481.84619	188.68620	-172.87186	1335.89417	271.18250	-333.39542	1261.83887	247.92781	-426.17746	1309.06335	227.72084	-409.96069	1232.30310	165.71385	-637.01385	1256.38757	132.13632	-619.51587	1288.00159	97.57661	-732.72546	1294.92480	105.50554	103.62110	1338.80249	270.80637	266.85135	1270.30591	266.81137	359.76205	1317.97241	248.30481	352.65329	1231.31958	198.90082	581.53271	1258.70862	187.73515	567.61145	1283.35083	146.51671	676.80768	1277.17407	163.83635	-8.46546	-5.37478	2.39375	-7.21355	-7.00926	-6.89375	-4.29806	4.46071	-0.23901	-0.06083	5.25095	0.10625	-8.73718	5.93920	-0.51020	-10.40678	5.95468	8.56993	-11.14342	16.26725	1.11123	14.25267	-26.12725	2.07928	-7.97583	-26.12725	83.53664	-8.20806	-0.00000	83.53664	-13.48725	-6.05195	83.53664	-7.30042	-16.18426	-0.00000	-16.19853	-0.98989	2.47339
83	1.64000	90.41661	841.52039	193.02907	-165.86888	842.57538	203.21700	-163.21651	853.74420	268.78287	93.06898	852.68921	258.59497	-35.07376	853.21674	263.68893	-90.30801	476.45377	259.44098	27.90343	475.00351	241.98761	-29.30168	423.48224	258.03983	110.67487	420.97125	257.53763	37.07870	221.26331	256.97305	-33.54154	426.01312	281.53259	-172.89340	421.38617	268.89771	-95.60264	223.12279	264.68253	114.57236	36.77204	202.64214	64.83685	38.69507	197.87979	50.88065	30.42684	340.29245	104.15355	65.99024	327.44852	-170.24289	52.35955	195.24770	-120.48695	47.63902	193.81180	-118.28578	27.67052	335.73047	-165.19516	71.13123	322.37372	-34.40613	1308.28906	375.41571	-37.86356	750.63892	72.62686	-34.40613	1308.28906	375.41571	-98.45748	1486.38086	254.60544	41.30236	1481.75586	261.37259	-25.23416	1482.81189	188.08020	-173.00380	1337.55591	270.90720	-334.25815	1269.32019	247.19916	-425.39438	1320.42126	229.03731	-411.87488	1245.58972	164.09532	-638.06732	1278.47559	132.21848	-619.59613	1310.78784	98.83088	-732.05347	1321.60327	106.03137	103.08553	1341.03540	270.66071	267.17670	1278.90723	267.33301	358.13428	1330.51770	249.72452	354.82233	1244.10706	199.50290	582.41980	1281.02380	189.64572	567.66730	1305.45129	148.58891	676.98193	1305.11169	165.99681	-8.36196	-5.34741	2.39513	-7.10390	-7.00188	-6.68233	-4.21477	4.54243	-0.29782	0.03575	5.20792	-0.06224	-8.90188	5.93938	-0.84087	-10.76853	5.94878	8.20432	-11.28662	16.79420	-1.30867	14.72958	-28.31856	-0.52499	-8.08969	-28.31856	84.61628	-8.19921	-0.00000	84.61628	-12.84116	-6.23630	84.61628	-6.66336	-15.48463	-0.00000	-16.56158	-1.30640	2.56757
84	1.66000	90.32710	841.77118	193.14153	-165.95784	843.12726	203.30864	-163.29745	854.14069	268.90048	92.98747	852.78461	258.73337	-35.15499	853.46265	263.81693	-90.48830	476.82443	258.97632	27.37346	475.19653	241.71820	-29.89428	423.63174	257.65189	110.08341	421.15457	257.30917	36.53607	221.42894	256.62964	-33.66291	426.42276	280.92401	-173.03467	421.68625	268.55127	-95.59254	223.48599	264.14935	113.93350	36.42468	202.39763	64.20997	38.55517	197.59846	50.12471	30.63616	340.01828	103.56082	65.94061	327.13782	-170.00450	52.00452	194.79956	-120.21593	47.65261	193.32965	-117.74116	28.01642	335.29016	-164.98567	71.09574	321.87912	-34.35537	1309.18042	376.55099	-37.82201	752.13574	72.64978	-34.35537	1309.18042	376.55099	-98.62113	1487.08655	253.94110	41.12188	1482.76770	261.23740	-25.17975	1482.40820	187.72574	-172.93689	1339.42749	271.85410	-334.76971	1275.82166	247.62230	-424.59262	1329.98926	231.97894	-412.98792	1257.92529	163.62598	-638.35150	1297.73779	133.84583	-619.14050	1331.09656	101.93761	-730.98096	1343.84729	108.77982	102.41338	1343.62854	271.52386	267.30725	1286.07397	268.31961	356.72055	1340.80505	252.29572	356.06522	1255.68176	199.82086	582.50940	1299.47021	191.68277	567.15253	1324.52563	151.23039	676.53418	1323.53625	171.03705	-8.27149	-5.34530	2.39204	-7.03337	-7.08172	-6.52827	-4.24157	4.61669	-0.22336	-0.01179	5.16293	-0.12190	-8.75084	5.92900	-1.10759	-10.62262	5.95140	7.80580	-11.41157	18.25306	-3.26435	15.01575	-30.95379	-2.75017	-7.92762	-30.95379	84.70978	-8.22722	-0.00000	84.70978	-14.88377	-5.99400	84.70978	-6.62168	-14.54313	-0.00000	-17.70247	-1.14819	2.80182
